<svg width="348" height="384" viewBox="0 0 348 384" fill="none" xmlns="http://www.w3.org/2000/svg">
<rect x="101" y="225" width="65" height="67" fill="#383838"/>
<rect x="2.53491" y="6.16797" width="269.966" height="228.14" rx="20.2791" fill="#DBDBD9"/>
<path d="M345.379 122.871C338.788 86.3686 293.625 63.7236 271.867 56.9639C248.208 60.1325 215.086 71.286 271.867 90.5512C342.844 114.633 353.617 168.499 345.379 122.871Z" fill="#C93A30"/>
<path d="M287.076 6.16756C299.244 29.4885 282.007 39.5436 271.867 41.656C238.913 47.9932 195.82 60.6677 287.076 60.6677C401.146 60.6677 271.867 -22.9837 287.076 6.16756Z" fill="#C93A30"/>
<ellipse cx="82.3839" cy="124.089" rx="42.1763" ry="23.9907" transform="rotate(36.6076 82.3839 124.089)" fill="white"/>
<ellipse opacity="0.5" cx="186.583" cy="122.722" rx="42.4419" ry="24.6053" transform="rotate(140.729 186.583 122.722)" fill="white"/>
<ellipse cx="98.2271" cy="134.179" rx="18.378" ry="15.2093" fill="black"/>
<ellipse cx="171.739" cy="136.08" rx="19.6454" ry="15.8431" fill="black"/>
<path d="M184.413 133.546C183.779 137.982 184.413 134.18 183.779 137.348C181.878 134.18 183.146 133.546 179.343 129.11C176.808 124.674 171.975 124.04 176.175 124.04C180.375 124.04 183.145 128.476 184.413 133.546Z" fill="#C4C4C4"/>
<path d="M88.8383 124.06C92.007 122.159 90.6996 122.905 93.9081 122.793C92.1155 126.024 91.2941 123.598 89.3549 129.11C86.7819 133.524 87.4557 140.22 85.3548 136.583C83.2539 132.947 85.0826 127.694 88.8383 124.06Z" fill="#C4C4C4"/>
<path d="M95.0583 215.929C117.027 199.453 163.881 172.963 175.541 198.819" stroke="black" stroke-width="1.26744"/>
<rect y="40.3887" width="272.501" height="51.9652" fill="#C93A30"/>
<rect x="65.9072" y="314.156" width="35.4885" height="69.7095" rx="17.7442" fill="#CCB4C1"/>
<rect x="158.431" y="314.156" width="35.4885" height="69.7095" rx="17.7442" fill="#CCB4C1"/>
<circle cx="179.344" cy="253.953" r="20.9128" fill="#CCB4C1"/>
<circle cx="179.344" cy="253.953" r="20.9128" fill="#CCB4C1"/>
<rect x="89.9885" y="236.645" width="86.1862" height="92.5235" rx="19.0117" fill="#383838"/>
<rect x="89.9885" y="255.854" width="86.1862" height="92.5235" rx="30.4187" fill="#383838"/>
<circle cx="179.344" cy="253.953" r="20.9128" fill="#CCB4C1"/>
<circle cx="179.344" cy="253.953" r="20.9128" fill="#CCB4C1"/>
<circle cx="86.8201" cy="253.953" r="20.9128" fill="#CCB4C1"/>
<circle cx="86.8201" cy="253.953" r="20.9128" fill="#CCB4C1"/>
</svg>
