<svg width="85" height="21" viewBox="0 0 85 21" fill="none" xmlns="http://www.w3.org/2000/svg">
<path d="M8.46387 14.0205H3.50684L2.46973 17H0.158203L4.99219 4.20312H6.9873L11.8301 17H9.50977L8.46387 14.0205ZM4.13086 12.2275H7.83984L5.98535 6.91895L4.13086 12.2275ZM19.9775 13.7041C19.9775 13.1416 19.7783 12.708 19.3799 12.4033C18.9873 12.0986 18.2754 11.791 17.2441 11.4805C16.2129 11.1699 15.3926 10.8242 14.7832 10.4434C13.6172 9.71094 13.0342 8.75586 13.0342 7.57812C13.0342 6.54688 13.4531 5.69727 14.291 5.0293C15.1348 4.36133 16.2275 4.02734 17.5693 4.02734C18.46 4.02734 19.2539 4.19141 19.9512 4.51953C20.6484 4.84766 21.1963 5.31641 21.5947 5.92578C21.9932 6.5293 22.1924 7.2002 22.1924 7.93848H19.9775C19.9775 7.27051 19.7666 6.74902 19.3447 6.37402C18.9287 5.99316 18.3311 5.80273 17.5518 5.80273C16.8252 5.80273 16.2598 5.95801 15.8555 6.26855C15.457 6.5791 15.2578 7.0127 15.2578 7.56934C15.2578 8.03809 15.4746 8.43066 15.9082 8.74707C16.3418 9.05762 17.0566 9.3623 18.0527 9.66113C19.0488 9.9541 19.8486 10.291 20.4521 10.6719C21.0557 11.0469 21.498 11.4805 21.7793 11.9727C22.0605 12.459 22.2012 13.0303 22.2012 13.6865C22.2012 14.7529 21.791 15.6025 20.9707 16.2354C20.1562 16.8623 19.0488 17.1758 17.6484 17.1758C16.7227 17.1758 15.8701 17.0059 15.0908 16.666C14.3174 16.3203 13.7139 15.8457 13.2803 15.2422C12.8525 14.6387 12.6387 13.9355 12.6387 13.1328H14.8623C14.8623 13.8594 15.1025 14.4219 15.583 14.8203C16.0635 15.2188 16.752 15.418 17.6484 15.418C18.4219 15.418 19.002 15.2627 19.3887 14.9521C19.7812 14.6357 19.9775 14.2197 19.9775 13.7041ZM31.3154 14.0205H26.3584L25.3213 17H23.0098L27.8438 4.20312H29.8389L34.6816 17H32.3613L31.3154 14.0205ZM26.9824 12.2275H30.6914L28.8369 6.91895L26.9824 12.2275ZM35.3232 8L34.2334 7.32324C34.7607 6.55566 35.0332 5.74414 35.0508 4.88867V3.5H36.9229V4.71289C36.9229 5.31641 36.7676 5.92578 36.457 6.54102C36.1523 7.15039 35.7744 7.63672 35.3232 8ZM42.0732 14.416C42.0732 14.0352 41.915 13.7451 41.5986 13.5459C41.2881 13.3467 40.7695 13.1709 40.043 13.0186C39.3164 12.8662 38.71 12.6729 38.2236 12.4385C37.1572 11.9229 36.624 11.1758 36.624 10.1973C36.624 9.37695 36.9697 8.69141 37.6611 8.14062C38.3525 7.58984 39.2314 7.31445 40.2979 7.31445C41.4346 7.31445 42.3516 7.5957 43.0488 8.1582C43.752 8.7207 44.1035 9.4502 44.1035 10.3467H41.9678C41.9678 9.93652 41.8154 9.59668 41.5107 9.32715C41.2061 9.05176 40.8018 8.91406 40.2979 8.91406C39.8291 8.91406 39.4453 9.02246 39.1465 9.23926C38.8535 9.45605 38.707 9.74609 38.707 10.1094C38.707 10.4375 38.8447 10.6924 39.1201 10.874C39.3955 11.0557 39.9521 11.2402 40.79 11.4277C41.6279 11.6094 42.2842 11.8291 42.7588 12.0869C43.2393 12.3389 43.5938 12.6436 43.8223 13.001C44.0566 13.3584 44.1738 13.792 44.1738 14.3018C44.1738 15.1572 43.8193 15.8516 43.1104 16.3848C42.4014 16.9121 41.4727 17.1758 40.3242 17.1758C39.5449 17.1758 38.8506 17.0352 38.2412 16.7539C37.6318 16.4727 37.1572 16.0859 36.8174 15.5938C36.4775 15.1016 36.3076 14.5713 36.3076 14.0029H38.3818C38.4111 14.5068 38.6016 14.8965 38.9531 15.1719C39.3047 15.4414 39.7705 15.5762 40.3506 15.5762C40.9131 15.5762 41.3408 15.4707 41.6338 15.2598C41.9268 15.043 42.0732 14.7617 42.0732 14.416ZM58.8691 12.3418C58.8691 13.8184 58.5381 14.9932 57.876 15.8662C57.2197 16.7393 56.3145 17.1758 55.1602 17.1758C54.0469 17.1758 53.1797 16.7744 52.5586 15.9717L52.4531 17H50.5195V3.5H52.6553V8.4043C53.2705 7.67773 54.0996 7.31445 55.1426 7.31445C56.3027 7.31445 57.2139 7.74512 57.876 8.60645C58.5381 9.46777 58.8691 10.6719 58.8691 12.2188V12.3418ZM56.7334 12.1572C56.7334 11.126 56.5518 10.3525 56.1885 9.83691C55.8252 9.32129 55.2979 9.06348 54.6064 9.06348C53.6807 9.06348 53.0303 9.46777 52.6553 10.2764V14.1963C53.0361 15.0225 53.6924 15.4355 54.624 15.4355C55.292 15.4355 55.8076 15.1865 56.1709 14.6885C56.5342 14.1904 56.7217 13.4375 56.7334 12.4297V12.1572ZM62.9385 17H60.8027V3.5H62.9385V17ZM64.8721 12.1572C64.8721 11.2256 65.0566 10.3877 65.4258 9.64355C65.7949 8.89355 66.3135 8.31934 66.9814 7.9209C67.6494 7.5166 68.417 7.31445 69.2842 7.31445C70.5674 7.31445 71.6074 7.72754 72.4043 8.55371C73.207 9.37988 73.6406 10.4756 73.7051 11.8408L73.7139 12.3418C73.7139 13.2793 73.5322 14.1172 73.1689 14.8555C72.8115 15.5938 72.2959 16.165 71.6221 16.5693C70.9541 16.9736 70.1807 17.1758 69.3018 17.1758C67.96 17.1758 66.8848 16.7305 66.0762 15.8398C65.2734 14.9434 64.8721 13.751 64.8721 12.2627V12.1572ZM67.0078 12.3418C67.0078 13.3203 67.21 14.0879 67.6143 14.6445C68.0186 15.1953 68.5811 15.4707 69.3018 15.4707C70.0225 15.4707 70.582 15.1895 70.9805 14.627C71.3848 14.0645 71.5869 13.2412 71.5869 12.1572C71.5869 11.1963 71.3789 10.4346 70.9629 9.87207C70.5527 9.30957 69.9932 9.02832 69.2842 9.02832C68.5869 9.02832 68.0332 9.30664 67.623 9.86328C67.2129 10.4141 67.0078 11.2402 67.0078 12.3418ZM75.1465 12.1748C75.1465 10.6982 75.4922 9.52051 76.1836 8.6416C76.8809 7.75684 77.8037 7.31445 78.9521 7.31445C80.0361 7.31445 80.8887 7.69238 81.5098 8.44824L81.6064 7.49023H83.5312V16.71C83.5312 17.958 83.1416 18.9424 82.3623 19.6631C81.5889 20.3838 80.543 20.7441 79.2246 20.7441C78.5273 20.7441 77.8447 20.5977 77.1768 20.3047C76.5146 20.0176 76.0107 19.6396 75.665 19.1709L76.6758 17.8877C77.332 18.667 78.1406 19.0566 79.1016 19.0566C79.8105 19.0566 80.3701 18.8633 80.7803 18.4766C81.1904 18.0957 81.3955 17.5332 81.3955 16.7891V16.1475C80.7803 16.833 79.96 17.1758 78.9346 17.1758C77.8213 17.1758 76.9102 16.7334 76.2012 15.8486C75.498 14.9639 75.1465 13.7393 75.1465 12.1748ZM77.2734 12.3594C77.2734 13.3145 77.4668 14.0674 77.8535 14.6182C78.2461 15.1631 78.7881 15.4355 79.4795 15.4355C80.3408 15.4355 80.9795 15.0664 81.3955 14.3281V10.1445C80.9912 9.42383 80.3584 9.06348 79.4971 9.06348C78.7939 9.06348 78.2461 9.3418 77.8535 9.89844C77.4668 10.4551 77.2734 11.2754 77.2734 12.3594Z" fill="#798696"/>
</svg>
